<svg width="20" height="20" viewBox="0 0 20 20" fill="none" xmlns="http://www.w3.org/2000/svg">
<g id="mingcute:car-door-fill" clip-path="url(#clip0_37_270)">
<g id="Group">
<path id="Vector" fill-rule="evenodd" clip-rule="evenodd" d="M9.99976 1.66669C11.4589 1.66669 12.6581 2.16002 13.4731 2.63252C14.5764 3.27169 14.9998 4.47419 14.9998 5.54752V6.97252C15.3306 7.18335 15.6389 7.38919 15.9123 7.57919L16.3831 7.91169L16.4664 7.97169C16.7089 8.14835 16.9506 8.32752 17.1856 8.51502C17.5406 8.79835 17.6023 9.33169 17.3173 9.68752C17.1792 9.85994 16.9783 9.97049 16.7587 9.99487C16.5392 10.0192 16.319 9.95546 16.1464 9.81752C15.7736 9.52391 15.3911 9.24264 14.9998 8.97419V14.655C14.9998 15.6306 14.6122 16.5662 13.9224 17.256C13.2326 17.9458 12.297 18.3334 11.3214 18.3334H8.67809C7.70254 18.3334 6.76694 17.9458 6.07712 17.256C5.3873 16.5662 4.99976 15.6306 4.99976 14.655V8.97419C4.61059 9.24419 4.22476 9.52169 3.85393 9.81752C3.68131 9.95565 3.4609 10.0196 3.24117 9.99518C3.02144 9.9708 2.82039 9.86013 2.68226 9.68752C2.54413 9.51491 2.48022 9.29449 2.5046 9.07476C2.52898 8.85503 2.63965 8.65399 2.81226 8.51585C3.04893 8.32919 3.28976 8.14919 3.53309 7.97169L3.88809 7.71752C4.20809 7.49252 4.58643 7.23585 4.99976 6.97335V5.54752C4.99976 4.47335 5.42309 3.27169 6.52643 2.63252C7.34143 2.16002 8.54143 1.66669 9.99976 1.66669ZM13.3331 9.51169C12.8256 10.0192 12.4998 10.6492 12.4998 11.3809V14.1667C12.4998 14.6087 12.3242 15.0326 12.0116 15.3452C11.699 15.6578 11.2751 15.8334 10.8331 15.8334H9.16643C8.7244 15.8334 8.30048 15.6578 7.98791 15.3452C7.67535 15.0326 7.49976 14.6087 7.49976 14.1667V11.3809C7.49976 10.6492 7.17393 10.0192 6.66643 9.51169V14.655C6.66643 14.9192 6.71846 15.1808 6.81955 15.4249C6.92065 15.6689 7.06883 15.8907 7.25563 16.0775C7.44243 16.2643 7.66419 16.4125 7.90826 16.5136C8.15233 16.6147 8.41392 16.6667 8.67809 16.6667H11.3214C11.5856 16.6667 11.8472 16.6147 12.0913 16.5136C12.3353 16.4125 12.5571 16.2643 12.7439 16.0775C12.9307 15.8907 13.0789 15.6689 13.18 15.4249C13.2811 15.1808 13.3331 14.9192 13.3331 14.655V9.51169ZM9.99976 3.33335C8.91893 3.33335 8.00809 3.70002 7.36226 4.07502C6.93559 4.32085 6.66643 4.85252 6.66643 5.54669V6.01335C6.96726 5.85919 7.27393 5.71419 7.57976 5.58502C8.36143 5.25669 9.21143 5.00002 9.99976 5.00002C10.7881 5.00002 11.6381 5.25669 12.4198 5.58585C12.7256 5.71502 13.0323 5.86002 13.3331 6.01335V5.54669C13.3331 4.85335 13.0639 4.32169 12.6373 4.07419C11.9914 3.70002 11.0806 3.33335 9.99976 3.33335Z" fill="#FFB72B"/>
</g>
</g>
<defs>
<clipPath id="clip0_37_270">
<rect width="20" height="20" fill="white"/>
</clipPath>
</defs>
</svg>
