<svg width="20" height="20" viewBox="0 0 20 20" fill="none" xmlns="http://www.w3.org/2000/svg">
<g id="ph:fan-fill">
<path id="Vector" d="M18.2029 10.5469C18.0136 9.83992 17.6615 9.18708 17.1746 8.64067C16.6877 8.09425 16.0796 7.66943 15.3991 7.40023C14.7185 7.13103 13.9844 7.02493 13.2554 7.09041C12.5265 7.1559 11.823 7.39116 11.2013 7.77736L12.4818 2.66486C12.5136 2.53784 12.5046 2.40405 12.4563 2.28237C12.4079 2.1607 12.3226 2.05729 12.2123 1.98673C11.6807 1.65107 11.087 1.42577 10.4666 1.32423C9.84619 1.2227 9.21168 1.247 8.60084 1.3957C7.99 1.5444 7.41531 1.81446 6.91097 2.1898C6.40663 2.56514 5.98295 3.0381 5.66514 3.58053C5.34732 4.12296 5.14187 4.72378 5.061 5.34723C4.98013 5.97069 5.0255 6.60404 5.19441 7.20961C5.36332 7.81517 5.65232 8.38057 6.04421 8.87216C6.4361 9.36375 6.92287 9.77149 7.47556 10.0711L2.40759 11.5188C2.28168 11.5546 2.17022 11.6291 2.08891 11.7317C2.00761 11.8343 1.96059 11.9599 1.95446 12.0906C1.90636 13.1578 2.22418 14.2093 2.85528 15.0711C3.48639 15.933 4.39293 16.5534 5.42478 16.8297C5.82276 16.9366 6.23301 16.9909 6.64509 16.9914C7.27302 16.9898 7.89424 16.8621 8.47194 16.616C9.04964 16.3699 9.57208 16.0104 10.0083 15.5587C10.4445 15.107 10.7857 14.5724 11.0115 13.9865C11.2374 13.4006 11.3434 12.7753 11.3232 12.1477L15.1107 15.8133C15.2049 15.9044 15.3254 15.9636 15.455 15.9826C15.5847 16.0015 15.7171 15.9792 15.8334 15.9188C16.781 15.4271 17.5325 14.6266 17.9634 13.6498C18.3942 12.6729 18.4787 11.5783 18.2029 10.5469ZM10.1904 11.5508C9.88367 11.5885 9.57265 11.5344 9.29667 11.3954C9.02068 11.2563 8.79213 11.0385 8.63991 10.7696C8.48769 10.5006 8.41865 10.1926 8.4415 9.8844C8.46436 9.57621 8.5781 9.28172 8.76833 9.03817C8.95856 8.79462 9.21674 8.61295 9.51022 8.51613C9.8037 8.41931 10.1193 8.4117 10.4171 8.49425C10.7149 8.5768 10.9816 8.74581 11.1833 8.9799C11.3851 9.21399 11.5129 9.50266 11.5506 9.80939C11.6011 10.2207 11.4862 10.6352 11.2311 10.9618C10.976 11.2884 10.6017 11.5002 10.1904 11.5508Z" fill="#FFB72B"/>
</g>
</svg>
