<svg width="20" height="20" viewBox="0 0 20 20" fill="none" xmlns="http://www.w3.org/2000/svg">
<g id="grommet-icons:manual">
<path id="Vector" d="M11.6668 7.49998V14.1666M8.3335 7.49998V14.1666M6.66683 4.16665C6.66683 5.0507 7.01802 5.89855 7.64314 6.52367C8.26826 7.14879 9.11611 7.49998 10.0002 7.49998C10.8842 7.49998 11.7321 7.14879 12.3572 6.52367C12.9823 5.89855 13.3335 5.0507 13.3335 4.16665C13.3335 3.28259 12.9823 2.43474 12.3572 1.80962C11.7321 1.1845 10.8842 0.833313 10.0002 0.833313C9.11611 0.833313 8.26826 1.1845 7.64314 1.80962C7.01802 2.43474 6.66683 3.28259 6.66683 4.16665ZM3.3335 19.1666H16.6668V16.6666H3.3335V19.1666ZM5.8335 16.6666H14.1668V14.1666H5.8335V16.6666Z" stroke="#FFB72B" stroke-width="1.66667"/>
</g>
</svg>
